<svg id="Group_6516" data-name="Group 6516" xmlns="http://www.w3.org/2000/svg" viewBox="0 0 200 200">
  <defs>
    <style>
      .cls-1 {
        fill: #fff;
      }
    </style>
  </defs>
  <g id="Group_63" data-name="Group 63" transform="translate(90.625 125)">
    <rect id="Rectangle_88" data-name="Rectangle 88" class="cls-1" width="6.25" height="75"/>
  </g>
  <g id="Group_64" data-name="Group 64" transform="translate(103.125 125)">
    <rect id="Rectangle_89" data-name="Rectangle 89" class="cls-1" width="6.25" height="75"/>
  </g>
  <g id="Group_65" data-name="Group 65" transform="translate(0 137.5)">
    <path id="Path_17" data-name="Path 17" class="cls-1" d="M84.375,94H0V87.75H78.125V44h6.25Z" transform="translate(0 -44)"/>
  </g>
  <g id="Group_66" data-name="Group 66" transform="translate(65.625 162.5)">
    <rect id="Rectangle_90" data-name="Rectangle 90" class="cls-1" width="6.25" height="21.875"/>
  </g>
  <g id="Group_67" data-name="Group 67">
    <path id="Path_18" data-name="Path 18" class="cls-1" d="M159.375,131.25h-18.75V125h18.75A34.276,34.276,0,0,0,193.75,90.625c0-17.812-12.188-31.25-28.125-31.25H162.5V56.25c0-12.187-6.562-25-25-25h-5l-.937-1.562C123.437,15,108.125,6.25,90.625,6.25A46.812,46.812,0,0,0,43.75,53.125V56.25H40.625a34.375,34.375,0,1,0,0,68.75h18.75v6.25H40.625A40.688,40.688,0,0,1,37.5,50,53.125,53.125,0,0,1,90.625,0C110,0,126.875,9.375,136.25,25h1.25c17.813,0,30,10.938,31.25,28.125C186.875,54.687,200,70.313,200,90.625A40.544,40.544,0,0,1,159.375,131.25Z"/>
  </g>
  <g id="Group_68" data-name="Group 68" transform="translate(115.625 137.5)">
    <path id="Path_19" data-name="Path 19" class="cls-1" d="M121.375,94H37V44h6.25V87.75h78.125Z" transform="translate(-37 -44)"/>
  </g>
  <g id="Group_73" data-name="Group 73" transform="translate(62.5 53.125)">
    <g id="Group_69" data-name="Group 69" transform="translate(6.25 34.375)">
      <rect id="Rectangle_91" data-name="Rectangle 91" class="cls-1" width="62.5" height="6.25"/>
    </g>
    <g id="Group_70" data-name="Group 70">
      <path id="Path_20" data-name="Path 20" class="cls-1" d="M57.5,92A37.5,37.5,0,1,1,95,54.5,37.61,37.61,0,0,1,57.5,92Zm0-68.75A31.25,31.25,0,1,0,88.75,54.5,31.342,31.342,0,0,0,57.5,23.25Z" transform="translate(-20 -17)"/>
    </g>
    <g id="Group_71" data-name="Group 71" transform="translate(34.375 3.125)">
      <rect id="Rectangle_92" data-name="Rectangle 92" class="cls-1" width="6.25" height="68.75"/>
    </g>
    <g id="Group_72" data-name="Group 72" transform="translate(15.625)">
      <path id="Path_21" data-name="Path 21" class="cls-1" d="M46.875,92C34.688,92,25,75.437,25,54.5S34.688,17,46.875,17,68.75,33.563,68.75,54.5,59.063,92,46.875,92Zm0-68.75c-8.437,0-15.625,14.375-15.625,31.25s7.188,31.25,15.625,31.25S62.5,71.375,62.5,54.5,55.313,23.25,46.875,23.25Z" transform="translate(-25 -17)"/>
    </g>
  </g>
  <g id="Group_74" data-name="Group 74" transform="translate(143.75 87.5)">
    <rect id="Rectangle_93" data-name="Rectangle 93" class="cls-1" width="6.25" height="6.25"/>
  </g>
  <g id="Group_75" data-name="Group 75" transform="translate(143.75 100)">
    <rect id="Rectangle_94" data-name="Rectangle 94" class="cls-1" width="6.25" height="6.25"/>
  </g>
  <g id="Group_76" data-name="Group 76" transform="translate(143.75 75)">
    <rect id="Rectangle_95" data-name="Rectangle 95" class="cls-1" width="6.25" height="6.25"/>
  </g>
  <g id="Group_77" data-name="Group 77" transform="translate(156.25 87.5)">
    <rect id="Rectangle_96" data-name="Rectangle 96" class="cls-1" width="6.25" height="6.25"/>
  </g>
  <g id="Group_78" data-name="Group 78" transform="translate(156.25 100)">
    <rect id="Rectangle_97" data-name="Rectangle 97" class="cls-1" width="6.25" height="6.25"/>
  </g>
  <g id="Group_79" data-name="Group 79" transform="translate(37.5 87.5)">
    <rect id="Rectangle_98" data-name="Rectangle 98" class="cls-1" width="6.25" height="6.25"/>
  </g>
  <g id="Group_80" data-name="Group 80" transform="translate(37.5 100)">
    <rect id="Rectangle_99" data-name="Rectangle 99" class="cls-1" width="6.25" height="6.25"/>
  </g>
  <g id="Group_81" data-name="Group 81" transform="translate(25 87.5)">
    <rect id="Rectangle_100" data-name="Rectangle 100" class="cls-1" width="6.25" height="6.25"/>
  </g>
  <g id="Group_82" data-name="Group 82" transform="translate(50 87.5)">
    <rect id="Rectangle_101" data-name="Rectangle 101" class="cls-1" width="6.25" height="6.25"/>
  </g>
  <g id="Group_83" data-name="Group 83" transform="translate(50 75)">
    <rect id="Rectangle_102" data-name="Rectangle 102" class="cls-1" width="6.25" height="6.25"/>
  </g>
  <g id="Group_84" data-name="Group 84" transform="translate(37.5 75)">
    <rect id="Rectangle_103" data-name="Rectangle 103" class="cls-1" width="6.25" height="6.25"/>
  </g>
  <g id="Group_85" data-name="Group 85" transform="translate(156.25 75)">
    <rect id="Rectangle_104" data-name="Rectangle 104" class="cls-1" width="6.25" height="6.25"/>
  </g>
  <g id="Group_86" data-name="Group 86" transform="translate(50 100)">
    <rect id="Rectangle_105" data-name="Rectangle 105" class="cls-1" width="6.25" height="6.25"/>
  </g>
  <g id="Group_87" data-name="Group 87" transform="translate(168.75 87.5)">
    <rect id="Rectangle_106" data-name="Rectangle 106" class="cls-1" width="6.25" height="6.25"/>
  </g>
  <g id="Group_88" data-name="Group 88" transform="translate(65.625 150)">
    <rect id="Rectangle_107" data-name="Rectangle 107" class="cls-1" width="6.25" height="6.25"/>
  </g>
  <g id="Group_89" data-name="Group 89" transform="translate(65.625 125)">
    <rect id="Rectangle_108" data-name="Rectangle 108" class="cls-1" width="6.25" height="6.25"/>
  </g>
  <g id="Group_90" data-name="Group 90" transform="translate(65.625 137.5)">
    <rect id="Rectangle_109" data-name="Rectangle 109" class="cls-1" width="6.25" height="6.25"/>
  </g>
  <g id="Group_91" data-name="Group 91" transform="translate(128.125 162.5)">
    <rect id="Rectangle_110" data-name="Rectangle 110" class="cls-1" width="6.25" height="21.875"/>
  </g>
  <g id="Group_92" data-name="Group 92" transform="translate(128.125 150)">
    <rect id="Rectangle_111" data-name="Rectangle 111" class="cls-1" width="6.25" height="6.25"/>
  </g>
  <g id="Group_93" data-name="Group 93" transform="translate(128.125 125)">
    <rect id="Rectangle_112" data-name="Rectangle 112" class="cls-1" width="6.25" height="6.25"/>
  </g>
  <g id="Group_94" data-name="Group 94" transform="translate(128.125 137.5)">
    <rect id="Rectangle_113" data-name="Rectangle 113" class="cls-1" width="6.25" height="6.25"/>
  </g>
</svg>
