<svg id="Group_6490" data-name="Group 6490" xmlns="http://www.w3.org/2000/svg" viewBox="0 0 200 149.533">
  <defs>
    <style>
      .cls-1 {
        fill: #fff;
      }
    </style>
  </defs>
  <g id="Group_6329" data-name="Group 6329" transform="translate(31.153 24.299)">
    <path id="Path_2606" data-name="Path 2606" class="cls-1" d="M134.611,120.573l-121.5-.623A3.122,3.122,0,0,1,10,116.834l.623-105.919A3.122,3.122,0,0,1,13.738,7.8l121.5.623v6.231l-118.38-.623-.312,99.688,118.069.623Z" transform="translate(-10 -7.8)"/>
  </g>
  <g id="Group_6330" data-name="Group 6330" transform="translate(0)">
    <path id="Path_2607" data-name="Path 2607" class="cls-1" d="M180.685,149.533,12.461,148.6A12.5,12.5,0,0,1,0,136.137L.623,23.988A12.5,12.5,0,0,1,13.084,11.526l143.3.623V18.38l-143.3-.623a6.249,6.249,0,0,0-6.231,6.231l-.623,112.15a6.249,6.249,0,0,0,6.231,6.231l168.224.935a12.461,12.461,0,1,0-12.461-12.461,3.115,3.115,0,0,1-6.231,0l.623-112.15a18.692,18.692,0,1,1,37.383,0l-.623,112.15A18.747,18.747,0,0,1,180.685,149.533Zm0-37.383a19.848,19.848,0,0,1,12.461,4.673l.623-98.131a12.461,12.461,0,1,0-24.922,0l-.623,98.131A19.848,19.848,0,0,1,180.685,112.15Z" transform="translate(0)"/>
  </g>
  <g id="Group_6331" data-name="Group 6331" transform="translate(15.924 70.833)">
    <rect id="Rectangle_134" data-name="Rectangle 134" class="cls-1" width="18.692" height="6.231" transform="translate(0 18.692) rotate(-89.734)"/>
  </g>
  <g id="Group_6332" data-name="Group 6332" transform="translate(50.156 42.991)">
    <path id="Path_2608" data-name="Path 2608" class="cls-1" d="M25.446,26.261H19.215A3.122,3.122,0,0,1,16.1,23.146V16.915A3.122,3.122,0,0,1,19.215,13.8h6.231a3.122,3.122,0,0,1,3.115,3.115v6.231A2.943,2.943,0,0,1,25.446,26.261Z" transform="translate(-16.1 -13.8)"/>
  </g>
  <g id="Group_6333" data-name="Group 6333" transform="translate(75.078 43.302)">
    <path id="Path_2609" data-name="Path 2609" class="cls-1" d="M33.446,26.361H27.215A3.122,3.122,0,0,1,24.1,23.246V17.015A3.122,3.122,0,0,1,27.215,13.9h6.231a3.122,3.122,0,0,1,3.115,3.115v6.231A3.122,3.122,0,0,1,33.446,26.361Z" transform="translate(-24.1 -13.9)"/>
  </g>
  <g id="Group_6334" data-name="Group 6334" transform="translate(100 43.302)">
    <path id="Path_2610" data-name="Path 2610" class="cls-1" d="M41.446,26.361H35.215A3.122,3.122,0,0,1,32.1,23.246V17.015A3.122,3.122,0,0,1,35.215,13.9h6.231a3.122,3.122,0,0,1,3.115,3.115v6.231A2.943,2.943,0,0,1,41.446,26.361Z" transform="translate(-32.1 -13.9)"/>
  </g>
  <g id="Group_6335" data-name="Group 6335" transform="translate(124.922 43.302)">
    <path id="Path_2611" data-name="Path 2611" class="cls-1" d="M49.446,26.361H43.215A3.122,3.122,0,0,1,40.1,23.246V17.015A3.122,3.122,0,0,1,43.215,13.9h6.231a3.122,3.122,0,0,1,3.115,3.115v6.231A2.943,2.943,0,0,1,49.446,26.361Z" transform="translate(-40.1 -13.9)"/>
  </g>
  <g id="Group_6336" data-name="Group 6336" transform="translate(50.156 67.913)">
    <path id="Path_2612" data-name="Path 2612" class="cls-1" d="M25.446,34.261H19.215A3.122,3.122,0,0,1,16.1,31.146V24.915A3.122,3.122,0,0,1,19.215,21.8h6.231a3.122,3.122,0,0,1,3.115,3.115v6.231A3.122,3.122,0,0,1,25.446,34.261Z" transform="translate(-16.1 -21.8)"/>
  </g>
  <g id="Group_6337" data-name="Group 6337" transform="translate(75.078 68.224)">
    <path id="Path_2613" data-name="Path 2613" class="cls-1" d="M33.446,34.361H27.215A3.122,3.122,0,0,1,24.1,31.246V25.015A3.122,3.122,0,0,1,27.215,21.9h6.231a3.122,3.122,0,0,1,3.115,3.115v6.231A3.35,3.35,0,0,1,33.446,34.361Z" transform="translate(-24.1 -21.9)"/>
  </g>
  <g id="Group_6338" data-name="Group 6338" transform="translate(100 68.224)">
    <path id="Path_2614" data-name="Path 2614" class="cls-1" d="M41.446,34.361H35.215A3.122,3.122,0,0,1,32.1,31.246V25.015A3.122,3.122,0,0,1,35.215,21.9h6.231a3.122,3.122,0,0,1,3.115,3.115v6.231A3.122,3.122,0,0,1,41.446,34.361Z" transform="translate(-32.1 -21.9)"/>
  </g>
  <g id="Group_6339" data-name="Group 6339" transform="translate(124.922 68.224)">
    <path id="Path_2615" data-name="Path 2615" class="cls-1" d="M49.446,34.361H43.215A3.122,3.122,0,0,1,40.1,31.246V25.015A3.122,3.122,0,0,1,43.215,21.9h6.231a3.122,3.122,0,0,1,3.115,3.115v6.231A3.122,3.122,0,0,1,49.446,34.361Z" transform="translate(-40.1 -21.9)"/>
  </g>
  <g id="Group_6340" data-name="Group 6340" transform="translate(49.844 92.835)">
    <path id="Path_2616" data-name="Path 2616" class="cls-1" d="M25.346,42.261H19.115A3.122,3.122,0,0,1,16,39.146V32.915A3.122,3.122,0,0,1,19.115,29.8h6.231a3.122,3.122,0,0,1,3.115,3.115v6.231A2.943,2.943,0,0,1,25.346,42.261Z" transform="translate(-16 -29.8)"/>
  </g>
  <g id="Group_6341" data-name="Group 6341" transform="translate(74.766 93.146)">
    <path id="Path_2617" data-name="Path 2617" class="cls-1" d="M33.346,42.361H27.115A3.122,3.122,0,0,1,24,39.246V33.015A3.122,3.122,0,0,1,27.115,29.9h6.231a3.122,3.122,0,0,1,3.115,3.115v6.231A3.122,3.122,0,0,1,33.346,42.361Z" transform="translate(-24 -29.9)"/>
  </g>
  <g id="Group_6342" data-name="Group 6342" transform="translate(177.916 56.106)">
    <rect id="Rectangle_135" data-name="Rectangle 135" class="cls-1" width="6.231" height="6.231" transform="translate(0 6.231) rotate(-89.734)"/>
  </g>
  <g id="Group_6343" data-name="Group 6343" transform="translate(177.973 43.703)">
    <rect id="Rectangle_136" data-name="Rectangle 136" class="cls-1" width="6.231" height="6.231" transform="translate(0 6.231) rotate(-89.734)"/>
  </g>
  <g id="Group_6344" data-name="Group 6344" transform="translate(177.858 68.509)">
    <rect id="Rectangle_137" data-name="Rectangle 137" class="cls-1" width="6.231" height="6.231" transform="translate(0 6.231) rotate(-89.734)"/>
  </g>
</svg>
