<svg id="Group_6515" data-name="Group 6515" xmlns="http://www.w3.org/2000/svg" viewBox="0 0 200 200">
  <defs>
    <style>
      .cls-1 {
        fill: #fff;
      }
    </style>
  </defs>
  <g id="Group_53" data-name="Group 53">
    <g id="Group_6" data-name="Group 6" transform="translate(87.5)">
      <path id="Path_4" data-name="Path 4" class="cls-1" d="M40.5,25A12.5,12.5,0,1,1,53,12.5,12.537,12.537,0,0,1,40.5,25Zm0-18.75a6.25,6.25,0,1,0,6.25,6.25A6.268,6.268,0,0,0,40.5,6.25Z" transform="translate(-28)"/>
    </g>
    <g id="Group_7" data-name="Group 7" transform="translate(87.5 175)">
      <path id="Path_5" data-name="Path 5" class="cls-1" d="M40.5,81A12.5,12.5,0,1,1,53,68.5,12.537,12.537,0,0,1,40.5,81Zm0-18.75a6.25,6.25,0,1,0,6.25,6.25A6.268,6.268,0,0,0,40.5,62.25Z" transform="translate(-28 -56)"/>
    </g>
    <g id="Group_8" data-name="Group 8" transform="translate(0 40.625)">
      <path id="Path_6" data-name="Path 6" class="cls-1" d="M12.5,38A12.5,12.5,0,1,1,25,25.5,12.537,12.537,0,0,1,12.5,38Zm0-18.75a6.25,6.25,0,1,0,6.25,6.25A6.268,6.268,0,0,0,12.5,19.25Z" transform="translate(0 -13)"/>
    </g>
    <g id="Group_9" data-name="Group 9" transform="translate(0 134.375)">
      <path id="Path_7" data-name="Path 7" class="cls-1" d="M12.5,68A12.5,12.5,0,1,1,25,55.5,12.537,12.537,0,0,1,12.5,68Zm0-18.75a6.25,6.25,0,1,0,6.25,6.25A6.268,6.268,0,0,0,12.5,49.25Z" transform="translate(0 -43)"/>
    </g>
    <g id="Group_10" data-name="Group 10" transform="translate(175 40.625)">
      <path id="Path_8" data-name="Path 8" class="cls-1" d="M68.5,38A12.5,12.5,0,1,1,81,25.5,12.537,12.537,0,0,1,68.5,38Zm0-18.75a6.25,6.25,0,1,0,6.25,6.25A6.268,6.268,0,0,0,68.5,19.25Z" transform="translate(-56 -13)"/>
    </g>
    <g id="Group_11" data-name="Group 11" transform="translate(175 134.375)">
      <path id="Path_9" data-name="Path 9" class="cls-1" d="M68.5,68A12.5,12.5,0,1,1,81,55.5,12.537,12.537,0,0,1,68.5,68Zm0-18.75a6.25,6.25,0,1,0,6.25,6.25A6.268,6.268,0,0,0,68.5,49.25Z" transform="translate(-56 -43)"/>
    </g>
    <g id="Group_12" data-name="Group 12" transform="translate(62.5 62.5)">
      <path id="Path_10" data-name="Path 10" class="cls-1" d="M57.5,95A37.5,37.5,0,1,1,95,57.5,37.61,37.61,0,0,1,57.5,95Zm0-68.75A31.25,31.25,0,1,0,88.75,57.5,31.342,31.342,0,0,0,57.5,26.25Z" transform="translate(-20 -20)"/>
    </g>
    <g id="Group_13" data-name="Group 13" transform="translate(50 50)">
      <path id="Path_11" data-name="Path 11" class="cls-1" d="M66,116a50,50,0,1,1,50-50A50.147,50.147,0,0,1,66,116Zm0-93.75A43.75,43.75,0,1,0,109.75,66,43.879,43.879,0,0,0,66,22.25Z" transform="translate(-16 -16)"/>
    </g>
    <g id="Group_14" data-name="Group 14" transform="translate(17.211 119.115)">
      <rect id="Rectangle_49" data-name="Rectangle 49" class="cls-1" width="46.25" height="6.25" transform="translate(0 21.899) rotate(-28.262)"/>
    </g>
    <g id="Group_15" data-name="Group 15" transform="translate(17.221 53.471)">
      <rect id="Rectangle_50" data-name="Rectangle 50" class="cls-1" width="6.25" height="46.25" transform="translate(0 5.503) rotate(-61.7)"/>
    </g>
    <g id="Group_16" data-name="Group 16" transform="translate(96.875 21.875)">
      <rect id="Rectangle_51" data-name="Rectangle 51" class="cls-1" width="6.25" height="31.25"/>
    </g>
    <g id="Group_17" data-name="Group 17" transform="translate(139.091 53.492)">
      <rect id="Rectangle_52" data-name="Rectangle 52" class="cls-1" width="46.25" height="6.25" transform="translate(0 21.899) rotate(-28.262)"/>
    </g>
    <g id="Group_18" data-name="Group 18" transform="translate(139.098 119.093)">
      <rect id="Rectangle_53" data-name="Rectangle 53" class="cls-1" width="6.25" height="46.25" transform="translate(0 5.503) rotate(-61.7)"/>
    </g>
    <g id="Group_19" data-name="Group 19" transform="translate(96.875 146.875)">
      <rect id="Rectangle_54" data-name="Rectangle 54" class="cls-1" width="6.25" height="31.25"/>
    </g>
    <g id="Group_20" data-name="Group 20" transform="translate(165.625 40.625)">
      <rect id="Rectangle_55" data-name="Rectangle 55" class="cls-1" width="6.25" height="6.25"/>
    </g>
    <g id="Group_21" data-name="Group 21" transform="translate(153.125 34.375)">
      <rect id="Rectangle_56" data-name="Rectangle 56" class="cls-1" width="6.25" height="6.25"/>
    </g>
    <g id="Group_22" data-name="Group 22" transform="translate(140.625 28.125)">
      <rect id="Rectangle_57" data-name="Rectangle 57" class="cls-1" width="6.25" height="6.25"/>
    </g>
    <g id="Group_23" data-name="Group 23" transform="translate(128.125 21.875)">
      <rect id="Rectangle_58" data-name="Rectangle 58" class="cls-1" width="6.25" height="6.25"/>
    </g>
    <g id="Group_24" data-name="Group 24" transform="translate(115.625 15.625)">
      <rect id="Rectangle_59" data-name="Rectangle 59" class="cls-1" width="6.25" height="6.25"/>
    </g>
    <g id="Group_25" data-name="Group 25" transform="translate(28.125 40.625)">
      <rect id="Rectangle_60" data-name="Rectangle 60" class="cls-1" width="6.25" height="6.25"/>
    </g>
    <g id="Group_26" data-name="Group 26" transform="translate(40.625 34.375)">
      <rect id="Rectangle_61" data-name="Rectangle 61" class="cls-1" width="6.25" height="6.25"/>
    </g>
    <g id="Group_27" data-name="Group 27" transform="translate(53.125 28.125)">
      <rect id="Rectangle_62" data-name="Rectangle 62" class="cls-1" width="6.25" height="6.25"/>
    </g>
    <g id="Group_28" data-name="Group 28" transform="translate(65.625 21.875)">
      <rect id="Rectangle_63" data-name="Rectangle 63" class="cls-1" width="6.25" height="6.25"/>
    </g>
    <g id="Group_29" data-name="Group 29" transform="translate(78.125 15.625)">
      <rect id="Rectangle_64" data-name="Rectangle 64" class="cls-1" width="6.25" height="6.25"/>
    </g>
    <g id="Group_40" data-name="Group 40" transform="translate(28.125 153.125)">
      <g id="Group_30" data-name="Group 30" transform="translate(137.5)">
        <rect id="Rectangle_65" data-name="Rectangle 65" class="cls-1" width="6.25" height="6.25"/>
      </g>
      <g id="Group_31" data-name="Group 31" transform="translate(125 6.25)">
        <rect id="Rectangle_66" data-name="Rectangle 66" class="cls-1" width="6.25" height="6.25"/>
      </g>
      <g id="Group_32" data-name="Group 32" transform="translate(112.5 12.5)">
        <rect id="Rectangle_67" data-name="Rectangle 67" class="cls-1" width="6.25" height="6.25"/>
      </g>
      <g id="Group_33" data-name="Group 33" transform="translate(100 18.75)">
        <rect id="Rectangle_68" data-name="Rectangle 68" class="cls-1" width="6.25" height="6.25"/>
      </g>
      <g id="Group_34" data-name="Group 34" transform="translate(87.5 25)">
        <rect id="Rectangle_69" data-name="Rectangle 69" class="cls-1" width="6.25" height="6.25"/>
      </g>
      <g id="Group_35" data-name="Group 35">
        <rect id="Rectangle_70" data-name="Rectangle 70" class="cls-1" width="6.25" height="6.25"/>
      </g>
      <g id="Group_36" data-name="Group 36" transform="translate(12.5 6.25)">
        <rect id="Rectangle_71" data-name="Rectangle 71" class="cls-1" width="6.25" height="6.25"/>
      </g>
      <g id="Group_37" data-name="Group 37" transform="translate(25 12.5)">
        <rect id="Rectangle_72" data-name="Rectangle 72" class="cls-1" width="6.25" height="6.25"/>
      </g>
      <g id="Group_38" data-name="Group 38" transform="translate(37.5 18.75)">
        <rect id="Rectangle_73" data-name="Rectangle 73" class="cls-1" width="6.25" height="6.25"/>
      </g>
      <g id="Group_39" data-name="Group 39" transform="translate(50 25)">
        <rect id="Rectangle_74" data-name="Rectangle 74" class="cls-1" width="6.25" height="6.25"/>
      </g>
    </g>
    <g id="Group_41" data-name="Group 41" transform="translate(9.375 71.875)">
      <rect id="Rectangle_75" data-name="Rectangle 75" class="cls-1" width="6.25" height="6.25"/>
    </g>
    <g id="Group_42" data-name="Group 42" transform="translate(9.375 84.375)">
      <rect id="Rectangle_76" data-name="Rectangle 76" class="cls-1" width="6.25" height="6.25"/>
    </g>
    <g id="Group_43" data-name="Group 43" transform="translate(9.375 96.875)">
      <rect id="Rectangle_77" data-name="Rectangle 77" class="cls-1" width="6.25" height="6.25"/>
    </g>
    <g id="Group_44" data-name="Group 44" transform="translate(9.375 109.375)">
      <rect id="Rectangle_78" data-name="Rectangle 78" class="cls-1" width="6.25" height="6.25"/>
    </g>
    <g id="Group_45" data-name="Group 45" transform="translate(9.375 121.875)">
      <rect id="Rectangle_79" data-name="Rectangle 79" class="cls-1" width="6.25" height="6.25"/>
    </g>
    <g id="Group_46" data-name="Group 46" transform="translate(184.375 71.875)">
      <rect id="Rectangle_80" data-name="Rectangle 80" class="cls-1" width="6.25" height="6.25"/>
    </g>
    <g id="Group_47" data-name="Group 47" transform="translate(184.375 84.375)">
      <rect id="Rectangle_81" data-name="Rectangle 81" class="cls-1" width="6.25" height="6.25"/>
    </g>
    <g id="Group_48" data-name="Group 48" transform="translate(184.375 96.875)">
      <rect id="Rectangle_82" data-name="Rectangle 82" class="cls-1" width="6.25" height="6.25"/>
    </g>
    <g id="Group_49" data-name="Group 49" transform="translate(184.375 109.375)">
      <rect id="Rectangle_83" data-name="Rectangle 83" class="cls-1" width="6.25" height="6.25"/>
    </g>
    <g id="Group_50" data-name="Group 50" transform="translate(184.375 121.875)">
      <rect id="Rectangle_84" data-name="Rectangle 84" class="cls-1" width="6.25" height="6.25"/>
    </g>
    <g id="Group_51" data-name="Group 51" transform="translate(84.375 62.5)">
      <path id="Path_12" data-name="Path 12" class="cls-1" d="M42.625,95C32.313,95,27,76.25,27,57.5S32.313,20,42.625,20,58.25,38.75,58.25,57.5,52.938,95,42.625,95Zm0-68.75c-3.75,0-9.375,12.5-9.375,31.25s5.625,31.25,9.375,31.25S52,76.25,52,57.5,46.375,26.25,42.625,26.25Z" transform="translate(-27 -20)"/>
    </g>
    <g id="Group_52" data-name="Group 52" transform="translate(62.5 84.375)">
      <path id="Path_13" data-name="Path 13" class="cls-1" d="M57.5,58.25C38.75,58.25,20,52.938,20,42.625S38.75,27,57.5,27,95,32.313,95,42.625,76.25,58.25,57.5,58.25Zm0-25c-18.75,0-31.25,5.625-31.25,9.375S38.75,52,57.5,52s31.25-5.625,31.25-9.375S76.25,33.25,57.5,33.25Z" transform="translate(-20 -27)"/>
    </g>
  </g>
</svg>
