<svg id="Group_6489" data-name="Group 6489" xmlns="http://www.w3.org/2000/svg" viewBox="0 0 200 193.599">
  <defs>
    <style>
      .cls-1 {
        fill: #fff;
      }
    </style>
  </defs>
  <g id="Group_6352" data-name="Group 6352" transform="translate(0 43.716)">
    <g id="Group_6346" data-name="Group 6346">
      <path id="Path_2618" data-name="Path 2618" class="cls-1" d="M99.975,126.412c-54.333,0-97.424-52.147-99.3-54.333a3.283,3.283,0,0,1,0-4.059C2.551,66.147,45.642,14,99.975,14s97.424,52.147,99.3,54.333a3.283,3.283,0,0,1,0,4.059C197.4,74.265,154.308,126.412,99.975,126.412ZM7.235,70.206c8.431,9.368,47.151,49.961,92.74,49.961s84.309-40.593,92.74-49.961c-8.431-9.368-47.151-49.961-92.74-49.961S15.666,60.838,7.235,70.206Z" transform="translate(0.025 -14)"/>
    </g>
    <g id="Group_6347" data-name="Group 6347" transform="translate(43.794)">
      <path id="Path_2619" data-name="Path 2619" class="cls-1" d="M70.206,126.412a56.206,56.206,0,1,1,56.206-56.206A56.371,56.371,0,0,1,70.206,126.412Zm0-106.167a49.961,49.961,0,1,0,49.961,49.961A50.108,50.108,0,0,0,70.206,20.245Z" transform="translate(-14 -14)"/>
    </g>
    <g id="Group_6348" data-name="Group 6348" transform="translate(56.284 12.49)">
      <path id="Path_2620" data-name="Path 2620" class="cls-1" d="M61.716,105.432a43.716,43.716,0,1,1,43.716-43.716A43.844,43.844,0,0,1,61.716,105.432Zm0-81.187A37.471,37.471,0,1,0,99.187,61.716,37.581,37.581,0,0,0,61.716,24.245Z" transform="translate(-18 -18)"/>
    </g>
    <g id="Group_6349" data-name="Group 6349" transform="translate(78.142 34.348)">
      <rect id="Rectangle_138" data-name="Rectangle 138" class="cls-1" width="6.245" height="6.245"/>
    </g>
    <g id="Group_6350" data-name="Group 6350" transform="translate(75.02 31.226)">
      <path id="Path_2621" data-name="Path 2621" class="cls-1" d="M48.98,73.961A25.054,25.054,0,0,1,24,48.98V42.735h3.123A15.461,15.461,0,0,0,42.735,27.123V24H48.98a25.054,25.054,0,0,1,24.98,24.98H67.716A18.79,18.79,0,0,0,48.98,30.245h-.312A21.529,21.529,0,0,1,30.245,48.668v.312A18.79,18.79,0,0,0,48.98,67.716Z" transform="translate(-24 -24)"/>
    </g>
    <g id="Group_6351" data-name="Group 6351" transform="translate(100 56.206)">
      <path id="Path_2622" data-name="Path 2622" class="cls-1" d="M44.49,56.98A12.49,12.49,0,1,1,56.98,44.49,12.527,12.527,0,0,1,44.49,56.98Zm0-18.735a6.245,6.245,0,1,0,6.245,6.245A6.263,6.263,0,0,0,44.49,38.245Z" transform="translate(-32 -32)"/>
    </g>
  </g>
  <g id="Group_6357" data-name="Group 6357" transform="translate(0.078 6.245)">
    <g id="Group_6353" data-name="Group 6353" transform="translate(0 12.49)">
      <path id="Path_2623" data-name="Path 2623" class="cls-1" d="M60.265,30.044l-17.8-17.8H0V6H44.965L64.637,25.672Z" transform="translate(0 -6)"/>
    </g>
    <g id="Group_6354" data-name="Group 6354">
      <rect id="Rectangle_139" data-name="Rectangle 139" class="cls-1" width="6.245" height="6.245"/>
    </g>
    <g id="Group_6355" data-name="Group 6355" transform="translate(12.49)">
      <rect id="Rectangle_140" data-name="Rectangle 140" class="cls-1" width="6.245" height="6.245"/>
    </g>
    <g id="Group_6356" data-name="Group 6356" transform="translate(24.98)">
      <rect id="Rectangle_141" data-name="Rectangle 141" class="cls-1" width="6.245" height="6.245"/>
    </g>
  </g>
  <g id="Group_6362" data-name="Group 6362" transform="translate(135.285 157.065)">
    <g id="Group_6358" data-name="Group 6358">
      <path id="Path_2624" data-name="Path 2624" class="cls-1" d="M107.937,74.344H62.972L43.3,54.672,47.672,50.3l17.8,17.8h42.467Z" transform="translate(-43.3 -50.3)"/>
    </g>
    <g id="Group_6359" data-name="Group 6359" transform="translate(58.392 30.289)">
      <rect id="Rectangle_142" data-name="Rectangle 142" class="cls-1" width="6.245" height="6.245"/>
    </g>
    <g id="Group_6360" data-name="Group 6360" transform="translate(45.902 30.289)">
      <rect id="Rectangle_143" data-name="Rectangle 143" class="cls-1" width="6.245" height="6.245"/>
    </g>
    <g id="Group_6361" data-name="Group 6361" transform="translate(33.411 30.289)">
      <rect id="Rectangle_144" data-name="Rectangle 144" class="cls-1" width="6.245" height="6.245"/>
    </g>
  </g>
  <g id="Group_6369" data-name="Group 6369" transform="translate(106.245)">
    <g id="Group_6363" data-name="Group 6363">
      <path id="Path_2625" data-name="Path 2625" class="cls-1" d="M127.677,74.941h-6.245V6.245H40.245V37.471H34V0h93.677Z" transform="translate(-34)"/>
    </g>
    <g id="Group_6364" data-name="Group 6364" transform="translate(49.961 24.98)">
      <path id="Path_2626" data-name="Path 2626" class="cls-1" d="M65.613,39.226V32.98a9.2,9.2,0,0,0,9.368-9.368,9.368,9.368,0,0,0-18.735,0H50a15.613,15.613,0,1,1,31.226,0A15.461,15.461,0,0,1,65.613,39.226Z" transform="translate(-50 -8)"/>
    </g>
    <g id="Group_6365" data-name="Group 6365" transform="translate(37.471 24.98)">
      <rect id="Rectangle_145" data-name="Rectangle 145" class="cls-1" width="6.245" height="6.245"/>
    </g>
    <g id="Group_6366" data-name="Group 6366" transform="translate(24.98 24.98)">
      <rect id="Rectangle_146" data-name="Rectangle 146" class="cls-1" width="6.245" height="6.245"/>
    </g>
    <g id="Group_6367" data-name="Group 6367" transform="translate(12.49 24.98)">
      <rect id="Rectangle_147" data-name="Rectangle 147" class="cls-1" width="6.245" height="6.245"/>
    </g>
    <g id="Group_6368" data-name="Group 6368" transform="translate(12.49 12.49)">
      <rect id="Rectangle_148" data-name="Rectangle 148" class="cls-1" width="68.696" height="6.245"/>
    </g>
  </g>
  <g id="Group_6376" data-name="Group 6376" transform="translate(0.078 131.148)">
    <g id="Group_6370" data-name="Group 6370" transform="translate(0 31.226)">
      <path id="Path_2627" data-name="Path 2627" class="cls-1" d="M74.941,70.735H0V52H37.471v6.245H6.245V64.49h68.7Z" transform="translate(0 -52)"/>
    </g>
    <g id="Group_6371" data-name="Group 6371" transform="translate(0 46.838)">
      <path id="Path_2628" data-name="Path 2628" class="cls-1" d="M74.941,72.613H0V57H6.245v9.368h68.7Z" transform="translate(0 -57)"/>
    </g>
    <g id="Group_6372" data-name="Group 6372">
      <path id="Path_2629" data-name="Path 2629" class="cls-1" d="M12.49,66.98A12.49,12.49,0,1,1,24.98,54.49,12.527,12.527,0,0,1,12.49,66.98Zm0-18.735a6.245,6.245,0,1,0,6.245,6.245A6.263,6.263,0,0,0,12.49,48.245Z" transform="translate(0 -42)"/>
    </g>
    <g id="Group_6373" data-name="Group 6373" transform="translate(43.716 31.226)">
      <rect id="Rectangle_149" data-name="Rectangle 149" class="cls-1" width="6.245" height="6.245"/>
    </g>
    <g id="Group_6374" data-name="Group 6374" transform="translate(81.187 56.206)">
      <rect id="Rectangle_150" data-name="Rectangle 150" class="cls-1" width="6.245" height="6.245"/>
    </g>
    <g id="Group_6375" data-name="Group 6375" transform="translate(81.187 43.716)">
      <rect id="Rectangle_151" data-name="Rectangle 151" class="cls-1" width="6.245" height="6.245"/>
    </g>
  </g>
</svg>
