<svg xmlns="http://www.w3.org/2000/svg" viewBox="0 0 160 160">
  <defs>
    <style>
      .cls-1 {
        fill: none;
      }

      .cls-2 {
        fill: #656565;
      }
    </style>
  </defs>
  <g id="Group_6612" data-name="Group 6612" transform="translate(-210 -3054)">
    <rect id="Rectangle_280" data-name="Rectangle 280" class="cls-1" width="160" height="160" transform="translate(210 3054)"/>
    <g id="Group_6469" data-name="Group 6469" transform="translate(254.544 3098.544)">
      <g id="Group_53" data-name="Group 53">
        <g id="Group_6" data-name="Group 6" transform="translate(31.181)">
          <path id="Path_4" data-name="Path 4" class="cls-2" d="M32.454,8.909a4.454,4.454,0,1,1,4.454-4.454A4.468,4.468,0,0,1,32.454,8.909Zm0-6.682a2.227,2.227,0,1,0,2.227,2.227A2.234,2.234,0,0,0,32.454,2.227Z" transform="translate(-28)"/>
        </g>
        <g id="Group_7" data-name="Group 7" transform="translate(31.181 62.362)">
          <path id="Path_5" data-name="Path 5" class="cls-2" d="M32.454,64.909a4.454,4.454,0,1,1,4.454-4.454A4.468,4.468,0,0,1,32.454,64.909Zm0-6.682a2.227,2.227,0,1,0,2.227,2.227A2.234,2.234,0,0,0,32.454,58.227Z" transform="translate(-28 -56)"/>
        </g>
        <g id="Group_8" data-name="Group 8" transform="translate(0 14.477)">
          <path id="Path_6" data-name="Path 6" class="cls-2" d="M4.454,21.909a4.454,4.454,0,1,1,4.454-4.454A4.468,4.468,0,0,1,4.454,21.909Zm0-6.682a2.227,2.227,0,1,0,2.227,2.227A2.234,2.234,0,0,0,4.454,15.227Z" transform="translate(0 -13)"/>
        </g>
        <g id="Group_9" data-name="Group 9" transform="translate(0 47.885)">
          <path id="Path_7" data-name="Path 7" class="cls-2" d="M4.454,51.909a4.454,4.454,0,1,1,4.454-4.454A4.468,4.468,0,0,1,4.454,51.909Zm0-6.682a2.227,2.227,0,1,0,2.227,2.227A2.234,2.234,0,0,0,4.454,45.227Z" transform="translate(0 -43)"/>
        </g>
        <g id="Group_10" data-name="Group 10" transform="translate(62.362 14.477)">
          <path id="Path_8" data-name="Path 8" class="cls-2" d="M60.454,21.909a4.454,4.454,0,1,1,4.454-4.454A4.468,4.468,0,0,1,60.454,21.909Zm0-6.682a2.227,2.227,0,1,0,2.227,2.227A2.234,2.234,0,0,0,60.454,15.227Z" transform="translate(-56 -13)"/>
        </g>
        <g id="Group_11" data-name="Group 11" transform="translate(62.362 47.885)">
          <path id="Path_9" data-name="Path 9" class="cls-2" d="M60.454,51.909a4.454,4.454,0,1,1,4.454-4.454A4.468,4.468,0,0,1,60.454,51.909Zm0-6.682a2.227,2.227,0,1,0,2.227,2.227A2.234,2.234,0,0,0,60.454,45.227Z" transform="translate(-56 -43)"/>
        </g>
        <g id="Group_12" data-name="Group 12" transform="translate(22.272 22.272)">
          <path id="Path_10" data-name="Path 10" class="cls-2" d="M33.363,46.727A13.363,13.363,0,1,1,46.727,33.363,13.4,13.4,0,0,1,33.363,46.727Zm0-24.5A11.136,11.136,0,1,0,44.5,33.363,11.169,11.169,0,0,0,33.363,22.227Z" transform="translate(-20 -20)"/>
        </g>
        <g id="Group_13" data-name="Group 13" transform="translate(17.818 17.818)">
          <path id="Path_11" data-name="Path 11" class="cls-2" d="M33.818,51.635A17.818,17.818,0,1,1,51.635,33.818,17.87,17.87,0,0,1,33.818,51.635Zm0-33.408A15.591,15.591,0,1,0,49.408,33.818,15.636,15.636,0,0,0,33.818,18.227Z" transform="translate(-16 -16)"/>
        </g>
        <g id="Group_14" data-name="Group 14" transform="translate(6.133 42.447)">
          <rect id="Rectangle_49" data-name="Rectangle 49" class="cls-2" width="16.481" height="2.227" transform="translate(0 7.804) rotate(-28.262)"/>
        </g>
        <g id="Group_15" data-name="Group 15" transform="translate(6.137 19.055)">
          <rect id="Rectangle_50" data-name="Rectangle 50" class="cls-2" width="2.227" height="16.481" transform="translate(0 1.961) rotate(-61.7)"/>
        </g>
        <g id="Group_16" data-name="Group 16" transform="translate(34.522 7.795)">
          <rect id="Rectangle_51" data-name="Rectangle 51" class="cls-2" width="2.227" height="11.136"/>
        </g>
        <g id="Group_17" data-name="Group 17" transform="translate(49.566 19.062)">
          <rect id="Rectangle_52" data-name="Rectangle 52" class="cls-2" width="16.481" height="2.227" transform="translate(0 7.804) rotate(-28.262)"/>
        </g>
        <g id="Group_18" data-name="Group 18" transform="translate(49.568 42.439)">
          <rect id="Rectangle_53" data-name="Rectangle 53" class="cls-2" width="2.227" height="16.481" transform="translate(0 1.961) rotate(-61.7)"/>
        </g>
        <g id="Group_19" data-name="Group 19" transform="translate(34.522 52.34)">
          <rect id="Rectangle_54" data-name="Rectangle 54" class="cls-2" width="2.227" height="11.136"/>
        </g>
        <g id="Group_20" data-name="Group 20" transform="translate(59.021 14.477)">
          <rect id="Rectangle_55" data-name="Rectangle 55" class="cls-2" width="2.227" height="2.227"/>
        </g>
        <g id="Group_21" data-name="Group 21" transform="translate(54.567 12.25)">
          <rect id="Rectangle_56" data-name="Rectangle 56" class="cls-2" width="2.227" height="2.227"/>
        </g>
        <g id="Group_22" data-name="Group 22" transform="translate(50.112 10.022)">
          <rect id="Rectangle_57" data-name="Rectangle 57" class="cls-2" width="2.227" height="2.227"/>
        </g>
        <g id="Group_23" data-name="Group 23" transform="translate(45.658 7.795)">
          <rect id="Rectangle_58" data-name="Rectangle 58" class="cls-2" width="2.227" height="2.227"/>
        </g>
        <g id="Group_24" data-name="Group 24" transform="translate(41.204 5.568)">
          <rect id="Rectangle_59" data-name="Rectangle 59" class="cls-2" width="2.227" height="2.227"/>
        </g>
        <g id="Group_25" data-name="Group 25" transform="translate(10.022 14.477)">
          <rect id="Rectangle_60" data-name="Rectangle 60" class="cls-2" width="2.227" height="2.227"/>
        </g>
        <g id="Group_26" data-name="Group 26" transform="translate(14.477 12.25)">
          <rect id="Rectangle_61" data-name="Rectangle 61" class="cls-2" width="2.227" height="2.227"/>
        </g>
        <g id="Group_27" data-name="Group 27" transform="translate(18.931 10.022)">
          <rect id="Rectangle_62" data-name="Rectangle 62" class="cls-2" width="2.227" height="2.227"/>
        </g>
        <g id="Group_28" data-name="Group 28" transform="translate(23.386 7.795)">
          <rect id="Rectangle_63" data-name="Rectangle 63" class="cls-2" width="2.227" height="2.227"/>
        </g>
        <g id="Group_29" data-name="Group 29" transform="translate(27.84 5.568)">
          <rect id="Rectangle_64" data-name="Rectangle 64" class="cls-2" width="2.227" height="2.227"/>
        </g>
        <g id="Group_40" data-name="Group 40" transform="translate(10.022 54.567)">
          <g id="Group_30" data-name="Group 30" transform="translate(48.999)">
            <rect id="Rectangle_65" data-name="Rectangle 65" class="cls-2" width="2.227" height="2.227"/>
          </g>
          <g id="Group_31" data-name="Group 31" transform="translate(44.544 2.227)">
            <rect id="Rectangle_66" data-name="Rectangle 66" class="cls-2" width="2.227" height="2.227"/>
          </g>
          <g id="Group_32" data-name="Group 32" transform="translate(40.09 4.454)">
            <rect id="Rectangle_67" data-name="Rectangle 67" class="cls-2" width="2.227" height="2.227"/>
          </g>
          <g id="Group_33" data-name="Group 33" transform="translate(35.635 6.682)">
            <rect id="Rectangle_68" data-name="Rectangle 68" class="cls-2" width="2.227" height="2.227"/>
          </g>
          <g id="Group_34" data-name="Group 34" transform="translate(31.181 8.909)">
            <rect id="Rectangle_69" data-name="Rectangle 69" class="cls-2" width="2.227" height="2.227"/>
          </g>
          <g id="Group_35" data-name="Group 35">
            <rect id="Rectangle_70" data-name="Rectangle 70" class="cls-2" width="2.227" height="2.227"/>
          </g>
          <g id="Group_36" data-name="Group 36" transform="translate(4.454 2.227)">
            <rect id="Rectangle_71" data-name="Rectangle 71" class="cls-2" width="2.227" height="2.227"/>
          </g>
          <g id="Group_37" data-name="Group 37" transform="translate(8.909 4.454)">
            <rect id="Rectangle_72" data-name="Rectangle 72" class="cls-2" width="2.227" height="2.227"/>
          </g>
          <g id="Group_38" data-name="Group 38" transform="translate(13.363 6.682)">
            <rect id="Rectangle_73" data-name="Rectangle 73" class="cls-2" width="2.227" height="2.227"/>
          </g>
          <g id="Group_39" data-name="Group 39" transform="translate(17.818 8.909)">
            <rect id="Rectangle_74" data-name="Rectangle 74" class="cls-2" width="2.227" height="2.227"/>
          </g>
        </g>
        <g id="Group_41" data-name="Group 41" transform="translate(3.341 25.613)">
          <rect id="Rectangle_75" data-name="Rectangle 75" class="cls-2" width="2.227" height="2.227"/>
        </g>
        <g id="Group_42" data-name="Group 42" transform="translate(3.341 30.067)">
          <rect id="Rectangle_76" data-name="Rectangle 76" class="cls-2" width="2.227" height="2.227"/>
        </g>
        <g id="Group_43" data-name="Group 43" transform="translate(3.341 34.522)">
          <rect id="Rectangle_77" data-name="Rectangle 77" class="cls-2" width="2.227" height="2.227"/>
        </g>
        <g id="Group_44" data-name="Group 44" transform="translate(3.341 38.976)">
          <rect id="Rectangle_78" data-name="Rectangle 78" class="cls-2" width="2.227" height="2.227"/>
        </g>
        <g id="Group_45" data-name="Group 45" transform="translate(3.341 43.431)">
          <rect id="Rectangle_79" data-name="Rectangle 79" class="cls-2" width="2.227" height="2.227"/>
        </g>
        <g id="Group_46" data-name="Group 46" transform="translate(65.703 25.613)">
          <rect id="Rectangle_80" data-name="Rectangle 80" class="cls-2" width="2.227" height="2.227"/>
        </g>
        <g id="Group_47" data-name="Group 47" transform="translate(65.703 30.067)">
          <rect id="Rectangle_81" data-name="Rectangle 81" class="cls-2" width="2.227" height="2.227"/>
        </g>
        <g id="Group_48" data-name="Group 48" transform="translate(65.703 34.522)">
          <rect id="Rectangle_82" data-name="Rectangle 82" class="cls-2" width="2.227" height="2.227"/>
        </g>
        <g id="Group_49" data-name="Group 49" transform="translate(65.703 38.976)">
          <rect id="Rectangle_83" data-name="Rectangle 83" class="cls-2" width="2.227" height="2.227"/>
        </g>
        <g id="Group_50" data-name="Group 50" transform="translate(65.703 43.431)">
          <rect id="Rectangle_84" data-name="Rectangle 84" class="cls-2" width="2.227" height="2.227"/>
        </g>
        <g id="Group_51" data-name="Group 51" transform="translate(30.067 22.272)">
          <path id="Path_12" data-name="Path 12" class="cls-2" d="M32.568,46.727C28.893,46.727,27,40.045,27,33.363S28.893,20,32.568,20s5.568,6.682,5.568,13.363S36.243,46.727,32.568,46.727Zm0-24.5c-1.336,0-3.341,4.454-3.341,11.136s2,11.136,3.341,11.136,3.341-4.454,3.341-11.136S33.9,22.227,32.568,22.227Z" transform="translate(-27 -20)"/>
        </g>
        <g id="Group_52" data-name="Group 52" transform="translate(22.272 30.067)">
          <path id="Path_13" data-name="Path 13" class="cls-2" d="M33.363,38.136C26.682,38.136,20,36.243,20,32.568S26.682,27,33.363,27s13.363,1.893,13.363,5.568S40.045,38.136,33.363,38.136Zm0-8.909c-6.682,0-11.136,2-11.136,3.341s4.454,3.341,11.136,3.341S44.5,33.9,44.5,32.568,40.045,29.227,33.363,29.227Z" transform="translate(-20 -27)"/>
        </g>
      </g>
    </g>
  </g>
</svg>
