<svg xmlns="http://www.w3.org/2000/svg" viewBox="0 0 160 160">
  <defs>
    <style>
      .cls-1 {
        fill: none;
      }

      .cls-2 {
        fill: #656565;
      }
    </style>
  </defs>
  <g id="Group_6616" data-name="Group 6616" transform="translate(-1209.132 -3054)">
    <rect id="Rectangle_283" data-name="Rectangle 283" class="cls-1" width="160" height="160" transform="translate(1209.132 3054)"/>
    <g id="Group_6468" data-name="Group 6468" transform="translate(1253.082 3099.732)">
      <g id="Group_6352" data-name="Group 6352" transform="translate(0 15.578)">
        <g id="Group_6346" data-name="Group 6346">
          <path id="Path_2618" data-name="Path 2618" class="cls-2" d="M35.61,54.059C16.249,54.059.893,35.476.225,34.7a1.17,1.17,0,0,1,0-1.447C.893,32.583,16.249,14,35.61,14S70.328,32.583,71,33.362a1.17,1.17,0,0,1,0,1.447C70.328,35.476,54.972,54.059,35.61,54.059ZM2.562,34.029c3,3.338,16.8,17.8,33.048,17.8s30.044-14.466,33.048-17.8c-3-3.338-16.8-17.8-33.048-17.8S5.567,30.691,2.562,34.029Z" transform="translate(0.025 -14)"/>
        </g>
        <g id="Group_6347" data-name="Group 6347" transform="translate(15.606)">
          <path id="Path_2619" data-name="Path 2619" class="cls-2" d="M34.029,54.059A20.029,20.029,0,1,1,54.059,34.029,20.088,20.088,0,0,1,34.029,54.059Zm0-37.833a17.8,17.8,0,1,0,17.8,17.8A17.856,17.856,0,0,0,34.029,16.225Z" transform="translate(-14 -14)"/>
        </g>
        <g id="Group_6348" data-name="Group 6348" transform="translate(20.057 4.451)">
          <path id="Path_2620" data-name="Path 2620" class="cls-2" d="M33.578,49.157A15.578,15.578,0,1,1,49.157,33.578,15.624,15.624,0,0,1,33.578,49.157Zm0-28.931A13.353,13.353,0,1,0,46.931,33.578,13.392,13.392,0,0,0,33.578,20.225Z" transform="translate(-18 -18)"/>
        </g>
        <g id="Group_6349" data-name="Group 6349" transform="translate(27.846 12.24)">
          <rect id="Rectangle_138" data-name="Rectangle 138" class="cls-2" width="2.225" height="2.225"/>
        </g>
        <g id="Group_6350" data-name="Group 6350" transform="translate(26.734 11.127)">
          <path id="Path_2621" data-name="Path 2621" class="cls-2" d="M32.9,41.8A8.928,8.928,0,0,1,24,32.9V30.676h1.113a5.51,5.51,0,0,0,5.564-5.564V24H32.9a8.928,8.928,0,0,1,8.9,8.9H39.578A6.7,6.7,0,0,0,32.9,26.225h-.111a7.672,7.672,0,0,1-6.565,6.565V32.9A6.7,6.7,0,0,0,32.9,39.578Z" transform="translate(-24 -24)"/>
        </g>
        <g id="Group_6351" data-name="Group 6351" transform="translate(35.635 20.029)">
          <path id="Path_2622" data-name="Path 2622" class="cls-2" d="M36.451,40.9A4.451,4.451,0,1,1,40.9,36.451,4.464,4.464,0,0,1,36.451,40.9Zm0-6.676a2.225,2.225,0,1,0,2.225,2.225A2.232,2.232,0,0,0,36.451,34.225Z" transform="translate(-32 -32)"/>
        </g>
      </g>
      <g id="Group_6357" data-name="Group 6357" transform="translate(0.028 2.225)">
        <g id="Group_6353" data-name="Group 6353" transform="translate(0 4.451)">
          <path id="Path_2623" data-name="Path 2623" class="cls-2" d="M21.476,14.568,15.133,8.225H0V6H16.023l7.01,7.01Z" transform="translate(0 -6)"/>
        </g>
        <g id="Group_6354" data-name="Group 6354">
          <rect id="Rectangle_139" data-name="Rectangle 139" class="cls-2" width="2.225" height="2.225"/>
        </g>
        <g id="Group_6355" data-name="Group 6355" transform="translate(4.451)">
          <rect id="Rectangle_140" data-name="Rectangle 140" class="cls-2" width="2.225" height="2.225"/>
        </g>
        <g id="Group_6356" data-name="Group 6356" transform="translate(8.902)">
          <rect id="Rectangle_141" data-name="Rectangle 141" class="cls-2" width="2.225" height="2.225"/>
        </g>
      </g>
      <g id="Group_6362" data-name="Group 6362" transform="translate(48.209 55.971)">
        <g id="Group_6358" data-name="Group 6358">
          <path id="Path_2624" data-name="Path 2624" class="cls-2" d="M66.334,58.868H50.31l-7.01-7.01L44.858,50.3,51.2,56.643H66.334Z" transform="translate(-43.3 -50.3)"/>
        </g>
        <g id="Group_6359" data-name="Group 6359" transform="translate(20.808 10.794)">
          <rect id="Rectangle_142" data-name="Rectangle 142" class="cls-2" width="2.225" height="2.225"/>
        </g>
        <g id="Group_6360" data-name="Group 6360" transform="translate(16.357 10.794)">
          <rect id="Rectangle_143" data-name="Rectangle 143" class="cls-2" width="2.225" height="2.225"/>
        </g>
        <g id="Group_6361" data-name="Group 6361" transform="translate(11.906 10.794)">
          <rect id="Rectangle_144" data-name="Rectangle 144" class="cls-2" width="2.225" height="2.225"/>
        </g>
      </g>
      <g id="Group_6369" data-name="Group 6369" transform="translate(37.861)">
        <g id="Group_6363" data-name="Group 6363">
          <path id="Path_2625" data-name="Path 2625" class="cls-2" d="M67.382,26.706H65.157V2.225H36.225V13.353H34V0H67.382Z" transform="translate(-34)"/>
        </g>
        <g id="Group_6364" data-name="Group 6364" transform="translate(17.804 8.902)">
          <path id="Path_2626" data-name="Path 2626" class="cls-2" d="M55.564,19.127V16.9a3.338,3.338,0,1,0-3.338-3.338H50a5.564,5.564,0,1,1,5.564,5.564Z" transform="translate(-50 -8)"/>
        </g>
        <g id="Group_6365" data-name="Group 6365" transform="translate(13.353 8.902)">
          <rect id="Rectangle_145" data-name="Rectangle 145" class="cls-2" width="2.225" height="2.225"/>
        </g>
        <g id="Group_6366" data-name="Group 6366" transform="translate(8.902 8.902)">
          <rect id="Rectangle_146" data-name="Rectangle 146" class="cls-2" width="2.225" height="2.225"/>
        </g>
        <g id="Group_6367" data-name="Group 6367" transform="translate(4.451 8.902)">
          <rect id="Rectangle_147" data-name="Rectangle 147" class="cls-2" width="2.225" height="2.225"/>
        </g>
        <g id="Group_6368" data-name="Group 6368" transform="translate(4.451 4.451)">
          <rect id="Rectangle_148" data-name="Rectangle 148" class="cls-2" width="24.48" height="2.225"/>
        </g>
      </g>
      <g id="Group_6376" data-name="Group 6376" transform="translate(0.028 46.735)">
        <g id="Group_6370" data-name="Group 6370" transform="translate(0 11.127)">
          <path id="Path_2627" data-name="Path 2627" class="cls-2" d="M26.706,58.676H0V52H13.353v2.225H2.225v2.225h24.48Z" transform="translate(0 -52)"/>
        </g>
        <g id="Group_6371" data-name="Group 6371" transform="translate(0 16.691)">
          <path id="Path_2628" data-name="Path 2628" class="cls-2" d="M26.706,62.564H0V57H2.225v3.338h24.48Z" transform="translate(0 -57)"/>
        </g>
        <g id="Group_6372" data-name="Group 6372">
          <path id="Path_2629" data-name="Path 2629" class="cls-2" d="M4.451,50.9A4.451,4.451,0,1,1,8.9,46.451,4.464,4.464,0,0,1,4.451,50.9Zm0-6.676a2.225,2.225,0,1,0,2.225,2.225A2.232,2.232,0,0,0,4.451,44.225Z" transform="translate(0 -42)"/>
        </g>
        <g id="Group_6373" data-name="Group 6373" transform="translate(15.578 11.127)">
          <rect id="Rectangle_149" data-name="Rectangle 149" class="cls-2" width="2.225" height="2.225"/>
        </g>
        <g id="Group_6374" data-name="Group 6374" transform="translate(28.931 20.029)">
          <rect id="Rectangle_150" data-name="Rectangle 150" class="cls-2" width="2.225" height="2.225"/>
        </g>
        <g id="Group_6375" data-name="Group 6375" transform="translate(28.931 15.578)">
          <rect id="Rectangle_151" data-name="Rectangle 151" class="cls-2" width="2.225" height="2.225"/>
        </g>
      </g>
    </g>
  </g>
</svg>
