<svg xmlns="http://www.w3.org/2000/svg" viewBox="0 0 160 160">
  <defs>
    <style>
      .cls-1 {
        fill: none;
      }

      .cls-2 {
        fill: #656565;
      }
    </style>
  </defs>
  <g id="Group_6614" data-name="Group 6614" transform="translate(-709.566 -3054)">
    <rect id="Rectangle_282" data-name="Rectangle 282" class="cls-1" width="160" height="160" transform="translate(709.566 3054)"/>
    <g id="Group_6465" data-name="Group 6465" transform="translate(754.11 3098.544)">
      <g id="Group_63" data-name="Group 63" transform="translate(32.295 44.544)">
        <rect id="Rectangle_88" data-name="Rectangle 88" class="cls-2" width="2.227" height="26.727"/>
      </g>
      <g id="Group_64" data-name="Group 64" transform="translate(36.749 44.544)">
        <rect id="Rectangle_89" data-name="Rectangle 89" class="cls-2" width="2.227" height="26.727"/>
      </g>
      <g id="Group_65" data-name="Group 65" transform="translate(0 48.999)">
        <path id="Path_17" data-name="Path 17" class="cls-2" d="M30.067,61.818H0V59.591H27.84V44h2.227Z" transform="translate(0 -44)"/>
      </g>
      <g id="Group_66" data-name="Group 66" transform="translate(23.386 57.908)">
        <rect id="Rectangle_90" data-name="Rectangle 90" class="cls-2" width="2.227" height="7.795"/>
      </g>
      <g id="Group_67" data-name="Group 67">
        <path id="Path_18" data-name="Path 18" class="cls-2" d="M56.794,46.772H50.112V44.544h6.682a12.214,12.214,0,0,0,12.25-12.25c0-6.348-4.343-11.136-10.022-11.136H57.908V20.045c0-4.343-2.339-8.909-8.909-8.909H47.217l-.334-.557A16.348,16.348,0,0,0,32.295,2.227a16.682,16.682,0,0,0-16.7,16.7v1.114H14.477a12.25,12.25,0,1,0,0,24.5h6.682v2.227H14.477a14.5,14.5,0,0,1-1.114-28.954A18.931,18.931,0,0,1,32.295,0,18.6,18.6,0,0,1,48.553,8.909H49c6.348,0,10.691,3.9,11.136,10.022,6.459.557,11.136,6.125,11.136,13.363A14.448,14.448,0,0,1,56.794,46.772Z"/>
      </g>
      <g id="Group_68" data-name="Group 68" transform="translate(41.204 48.999)">
        <path id="Path_19" data-name="Path 19" class="cls-2" d="M67.067,61.818H37V44h2.227V59.591h27.84Z" transform="translate(-37 -44)"/>
      </g>
      <g id="Group_73" data-name="Group 73" transform="translate(22.272 18.931)">
        <g id="Group_69" data-name="Group 69" transform="translate(2.227 12.25)">
          <rect id="Rectangle_91" data-name="Rectangle 91" class="cls-2" width="22.272" height="2.227"/>
        </g>
        <g id="Group_70" data-name="Group 70">
          <path id="Path_20" data-name="Path 20" class="cls-2" d="M33.363,43.727A13.363,13.363,0,1,1,46.727,30.363,13.4,13.4,0,0,1,33.363,43.727Zm0-24.5A11.136,11.136,0,1,0,44.5,30.363,11.169,11.169,0,0,0,33.363,19.227Z" transform="translate(-20 -17)"/>
        </g>
        <g id="Group_71" data-name="Group 71" transform="translate(12.25 1.114)">
          <rect id="Rectangle_92" data-name="Rectangle 92" class="cls-2" width="2.227" height="24.499"/>
        </g>
        <g id="Group_72" data-name="Group 72" transform="translate(5.568)">
          <path id="Path_21" data-name="Path 21" class="cls-2" d="M32.8,43.727c-4.343,0-7.8-5.9-7.8-13.363S28.452,17,32.8,17s7.8,5.9,7.8,13.363S37.138,43.727,32.8,43.727Zm0-24.5c-3.007,0-5.568,5.123-5.568,11.136S29.789,41.5,32.8,41.5s5.568-5.123,5.568-11.136S35.8,19.227,32.8,19.227Z" transform="translate(-25 -17)"/>
        </g>
      </g>
      <g id="Group_74" data-name="Group 74" transform="translate(51.226 31.181)">
        <rect id="Rectangle_93" data-name="Rectangle 93" class="cls-2" width="2.227" height="2.227"/>
      </g>
      <g id="Group_75" data-name="Group 75" transform="translate(51.226 35.635)">
        <rect id="Rectangle_94" data-name="Rectangle 94" class="cls-2" width="2.227" height="2.227"/>
      </g>
      <g id="Group_76" data-name="Group 76" transform="translate(51.226 26.727)">
        <rect id="Rectangle_95" data-name="Rectangle 95" class="cls-2" width="2.227" height="2.227"/>
      </g>
      <g id="Group_77" data-name="Group 77" transform="translate(55.68 31.181)">
        <rect id="Rectangle_96" data-name="Rectangle 96" class="cls-2" width="2.227" height="2.227"/>
      </g>
      <g id="Group_78" data-name="Group 78" transform="translate(55.68 35.635)">
        <rect id="Rectangle_97" data-name="Rectangle 97" class="cls-2" width="2.227" height="2.227"/>
      </g>
      <g id="Group_79" data-name="Group 79" transform="translate(13.363 31.181)">
        <rect id="Rectangle_98" data-name="Rectangle 98" class="cls-2" width="2.227" height="2.227"/>
      </g>
      <g id="Group_80" data-name="Group 80" transform="translate(13.363 35.635)">
        <rect id="Rectangle_99" data-name="Rectangle 99" class="cls-2" width="2.227" height="2.227"/>
      </g>
      <g id="Group_81" data-name="Group 81" transform="translate(8.909 31.181)">
        <rect id="Rectangle_100" data-name="Rectangle 100" class="cls-2" width="2.227" height="2.227"/>
      </g>
      <g id="Group_82" data-name="Group 82" transform="translate(17.818 31.181)">
        <rect id="Rectangle_101" data-name="Rectangle 101" class="cls-2" width="2.227" height="2.227"/>
      </g>
      <g id="Group_83" data-name="Group 83" transform="translate(17.818 26.727)">
        <rect id="Rectangle_102" data-name="Rectangle 102" class="cls-2" width="2.227" height="2.227"/>
      </g>
      <g id="Group_84" data-name="Group 84" transform="translate(13.363 26.727)">
        <rect id="Rectangle_103" data-name="Rectangle 103" class="cls-2" width="2.227" height="2.227"/>
      </g>
      <g id="Group_85" data-name="Group 85" transform="translate(55.68 26.727)">
        <rect id="Rectangle_104" data-name="Rectangle 104" class="cls-2" width="2.227" height="2.227"/>
      </g>
      <g id="Group_86" data-name="Group 86" transform="translate(17.818 35.635)">
        <rect id="Rectangle_105" data-name="Rectangle 105" class="cls-2" width="2.227" height="2.227"/>
      </g>
      <g id="Group_87" data-name="Group 87" transform="translate(60.135 31.181)">
        <rect id="Rectangle_106" data-name="Rectangle 106" class="cls-2" width="2.227" height="2.227"/>
      </g>
      <g id="Group_88" data-name="Group 88" transform="translate(23.386 53.453)">
        <rect id="Rectangle_107" data-name="Rectangle 107" class="cls-2" width="2.227" height="2.227"/>
      </g>
      <g id="Group_89" data-name="Group 89" transform="translate(23.386 44.544)">
        <rect id="Rectangle_108" data-name="Rectangle 108" class="cls-2" width="2.227" height="2.227"/>
      </g>
      <g id="Group_90" data-name="Group 90" transform="translate(23.386 48.999)">
        <rect id="Rectangle_109" data-name="Rectangle 109" class="cls-2" width="2.227" height="2.227"/>
      </g>
      <g id="Group_91" data-name="Group 91" transform="translate(45.658 57.908)">
        <rect id="Rectangle_110" data-name="Rectangle 110" class="cls-2" width="2.227" height="7.795"/>
      </g>
      <g id="Group_92" data-name="Group 92" transform="translate(45.658 53.453)">
        <rect id="Rectangle_111" data-name="Rectangle 111" class="cls-2" width="2.227" height="2.227"/>
      </g>
      <g id="Group_93" data-name="Group 93" transform="translate(45.658 44.544)">
        <rect id="Rectangle_112" data-name="Rectangle 112" class="cls-2" width="2.227" height="2.227"/>
      </g>
      <g id="Group_94" data-name="Group 94" transform="translate(45.658 48.999)">
        <rect id="Rectangle_113" data-name="Rectangle 113" class="cls-2" width="2.227" height="2.227"/>
      </g>
    </g>
  </g>
</svg>
