<svg xmlns="http://www.w3.org/2000/svg" viewBox="0 0 1500 347.84">
  <defs>
    <style>
      .cls-1 {
        fill: #fff;
      }
    </style>
  </defs>
  <g id="Group_6612" data-name="Group 6612" transform="translate(598.775 -51.313)">
    <path id="Path_2" data-name="Path 2" class="cls-1" d="M1181.983,340.865c-91.607-1.589-180.566-36.537-253.64-109.611-34.948-34.948-67.249-72.015-102.2-107.493A886.634,886.634,0,0,0,760.485,63.4c-10.59-9-23.3-15.886-36.007-22.24-23.3-11.12-46.6-9.531-68.308,5.3a126.374,126.374,0,0,0-36.007,37.066c-14.827,23.3-28.065,47.127-42.361,70.956-6.354,10.59-13.238,21.71-21.181,31.242-23.828,29.653-51.893,37.6-88.43,26.476-27.535-8.472-51.363-22.769-70.956-42.891-20.651-20.651-39.184-43.421-58.777-65.131-17.474-19.063-34.948-38.655-53.481-57.188-10.59-10.59-18-10.59-30.712-2.118A111.02,111.02,0,0,0,215.61,90.4c-9.531,21.181-18,42.891-25.417,64.6-8.472,23.3-14.827,47.657-23.3,70.956-3.707,10.59-9.531,21.181-15.886,30.712-15.356,23.3-33.36,29.653-60.365,22.24-24.358-6.884-44.48-20.122-60.895-38.655-9.531-10.59-18-22.24-26.476-33.889C-2.552,198.424.1,192.6,10.156,192.07c20.651-.529,38.655,5.3,49.775,23.828l12.708,19.063c9,12.179,15.356,11.649,21.71-2.118q7.943-18.268,14.3-36.537c10.061-29.653,19.063-59.306,29.653-88.43,8.472-24.358,19.063-48.186,35.478-68.308,14.827-18,32.3-30.712,56.129-34.419,19.063-3.177,37.6,1.059,55.07,9,29.653,14.3,54.54,35.478,75.192,60.365,16.415,19.592,31.771,40.773,48.186,60.895,9,10.59,18.533,21.181,28.065,31.242,2.648,3.177,6.354,5.3,10.061,7.943,15.356,10.061,28.594,9,41.832-3.707,14.3-13.768,24.358-30.183,34.419-47.127C534.91,103.64,546.559,82.989,558.738,63.4a157.864,157.864,0,0,1,15.886-21.181c27.005-32.3,62.483-43.95,103.786-39.184C730.832,8.856,774.253,34.8,814.5,67.1c37.6,30.183,69.367,66.19,102.2,101.668,23.3,24.887,47.657,49.775,72.015,73.6,35.478,34.948,77.84,55.6,127.085,62.483,52.952,7.413,103.786,1.589,151.443-23.828,36.537-19.592,65.131-48.716,87.371-83.135,13.238-20.122,24.358-41.832,35.478-63.013,4.236-7.943,8.472-11.12,17.474-10.061a70.074,70.074,0,0,1,39.714,19.063c3.177,3.177,5.3,6.354,3.177,11.12-23.3,50.3-52.952,95.843-96.373,131.321C1307.479,323.92,1256.645,341.395,1181.983,340.865Z" transform="translate(-599 58.276)"/>
    <path id="Path_3" data-name="Path 3" class="cls-1" d="M341.646,47.374c0,15.886-5.825,24.358-15.885,27.006a13.16,13.16,0,0,1-4.236.53c-26.476-6.354-47.127-15.886-51.364-46.068a38.1,38.1,0,0,1,1.588-15.356C274.927,3.953,282.87-1.342,292.4.776c13.238,2.648,25.947,7.413,35.478,16.945A40.1,40.1,0,0,1,341.646,47.374Z" transform="translate(559.578 51)"/>
  </g>
</svg>
