<svg xmlns="http://www.w3.org/2000/svg" viewBox="0 0 160 160">
  <defs>
    <style>
      .cls-1 {
        fill: none;
      }

      .cls-2 {
        fill: #656565;
      }
    </style>
  </defs>
  <g id="Group_6615" data-name="Group 6615" transform="translate(-958.882 -3054)">
    <rect id="Rectangle_285" data-name="Rectangle 285" class="cls-1" width="160" height="160" transform="translate(958.882 3054)"/>
    <g id="Group_6467" data-name="Group 6467" transform="translate(1003.426 3107.453)">
      <g id="Group_6329" data-name="Group 6329" transform="translate(11.101 8.659)">
        <path id="Path_2606" data-name="Path 2606" class="cls-2" d="M54.406,47.987l-43.3-.222A1.112,1.112,0,0,1,10,46.655L10.222,8.91a1.112,1.112,0,0,1,1.11-1.11l43.3.222v2.22L12.442,10.02l-.111,35.524,42.074.222Z" transform="translate(-10 -7.8)"/>
      </g>
      <g id="Group_6330" data-name="Group 6330" transform="translate(0)">
        <path id="Path_2607" data-name="Path 2607" class="cls-2" d="M64.388,53.287,4.441,52.954A4.454,4.454,0,0,1,0,48.513L.222,8.548A4.454,4.454,0,0,1,4.663,4.108l51.066.222V6.55L4.663,6.328a2.227,2.227,0,0,0-2.22,2.22L2.22,48.513a2.227,2.227,0,0,0,2.22,2.22l59.948.333a4.441,4.441,0,1,0-4.441-4.441,1.11,1.11,0,0,1-2.22,0l.222-39.965a6.661,6.661,0,1,1,13.322,0l-.222,39.965A6.68,6.68,0,0,1,64.388,53.287Zm0-13.322a7.073,7.073,0,0,1,4.441,1.665l.222-34.969a4.441,4.441,0,1,0-8.881,0L59.948,41.63A7.073,7.073,0,0,1,64.388,39.965Z" transform="translate(0)"/>
      </g>
      <g id="Group_6331" data-name="Group 6331" transform="translate(5.675 25.242)">
        <rect id="Rectangle_134" data-name="Rectangle 134" class="cls-2" width="6.661" height="2.22" transform="translate(0 6.661) rotate(-89.734)"/>
      </g>
      <g id="Group_6332" data-name="Group 6332" transform="translate(17.873 15.32)">
        <path id="Path_2608" data-name="Path 2608" class="cls-2" d="M19.43,18.241H17.21a1.112,1.112,0,0,1-1.11-1.11V14.91a1.112,1.112,0,0,1,1.11-1.11h2.22a1.112,1.112,0,0,1,1.11,1.11v2.22A1.049,1.049,0,0,1,19.43,18.241Z" transform="translate(-16.1 -13.8)"/>
      </g>
      <g id="Group_6333" data-name="Group 6333" transform="translate(26.754 15.431)">
        <path id="Path_2609" data-name="Path 2609" class="cls-2" d="M27.43,18.341H25.21a1.112,1.112,0,0,1-1.11-1.11V15.01a1.112,1.112,0,0,1,1.11-1.11h2.22a1.112,1.112,0,0,1,1.11,1.11v2.22A1.112,1.112,0,0,1,27.43,18.341Z" transform="translate(-24.1 -13.9)"/>
      </g>
      <g id="Group_6334" data-name="Group 6334" transform="translate(35.635 15.431)">
        <path id="Path_2610" data-name="Path 2610" class="cls-2" d="M35.43,18.341H33.21a1.112,1.112,0,0,1-1.11-1.11V15.01a1.112,1.112,0,0,1,1.11-1.11h2.22a1.112,1.112,0,0,1,1.11,1.11v2.22A1.049,1.049,0,0,1,35.43,18.341Z" transform="translate(-32.1 -13.9)"/>
      </g>
      <g id="Group_6335" data-name="Group 6335" transform="translate(44.517 15.431)">
        <path id="Path_2611" data-name="Path 2611" class="cls-2" d="M43.43,18.341H41.21a1.112,1.112,0,0,1-1.11-1.11V15.01a1.112,1.112,0,0,1,1.11-1.11h2.22a1.112,1.112,0,0,1,1.11,1.11v2.22A1.049,1.049,0,0,1,43.43,18.341Z" transform="translate(-40.1 -13.9)"/>
      </g>
      <g id="Group_6336" data-name="Group 6336" transform="translate(17.873 24.201)">
        <path id="Path_2612" data-name="Path 2612" class="cls-2" d="M19.43,26.241H17.21a1.112,1.112,0,0,1-1.11-1.11V22.91a1.112,1.112,0,0,1,1.11-1.11h2.22a1.112,1.112,0,0,1,1.11,1.11v2.22A1.112,1.112,0,0,1,19.43,26.241Z" transform="translate(-16.1 -21.8)"/>
      </g>
      <g id="Group_6337" data-name="Group 6337" transform="translate(26.754 24.312)">
        <path id="Path_2613" data-name="Path 2613" class="cls-2" d="M27.43,26.341H25.21a1.112,1.112,0,0,1-1.11-1.11V23.01a1.112,1.112,0,0,1,1.11-1.11h2.22a1.112,1.112,0,0,1,1.11,1.11v2.22A1.194,1.194,0,0,1,27.43,26.341Z" transform="translate(-24.1 -21.9)"/>
      </g>
      <g id="Group_6338" data-name="Group 6338" transform="translate(35.635 24.312)">
        <path id="Path_2614" data-name="Path 2614" class="cls-2" d="M35.43,26.341H33.21a1.112,1.112,0,0,1-1.11-1.11V23.01a1.112,1.112,0,0,1,1.11-1.11h2.22a1.112,1.112,0,0,1,1.11,1.11v2.22A1.112,1.112,0,0,1,35.43,26.341Z" transform="translate(-32.1 -21.9)"/>
      </g>
      <g id="Group_6339" data-name="Group 6339" transform="translate(44.517 24.312)">
        <path id="Path_2615" data-name="Path 2615" class="cls-2" d="M43.43,26.341H41.21a1.112,1.112,0,0,1-1.11-1.11V23.01a1.112,1.112,0,0,1,1.11-1.11h2.22a1.112,1.112,0,0,1,1.11,1.11v2.22A1.112,1.112,0,0,1,43.43,26.341Z" transform="translate(-40.1 -21.9)"/>
      </g>
      <g id="Group_6340" data-name="Group 6340" transform="translate(17.762 33.082)">
        <path id="Path_2616" data-name="Path 2616" class="cls-2" d="M19.33,34.241H17.11A1.112,1.112,0,0,1,16,33.13V30.91a1.112,1.112,0,0,1,1.11-1.11h2.22a1.112,1.112,0,0,1,1.11,1.11v2.22A1.049,1.049,0,0,1,19.33,34.241Z" transform="translate(-16 -29.8)"/>
      </g>
      <g id="Group_6341" data-name="Group 6341" transform="translate(26.643 33.193)">
        <path id="Path_2617" data-name="Path 2617" class="cls-2" d="M27.33,34.341H25.11A1.112,1.112,0,0,1,24,33.23V31.01a1.112,1.112,0,0,1,1.11-1.11h2.22a1.112,1.112,0,0,1,1.11,1.11v2.22A1.112,1.112,0,0,1,27.33,34.341Z" transform="translate(-24 -29.9)"/>
      </g>
      <g id="Group_6342" data-name="Group 6342" transform="translate(63.401 19.994)">
        <rect id="Rectangle_135" data-name="Rectangle 135" class="cls-2" width="2.22" height="2.22" transform="translate(0 2.22) rotate(-89.734)"/>
      </g>
      <g id="Group_6343" data-name="Group 6343" transform="translate(63.422 15.574)">
        <rect id="Rectangle_136" data-name="Rectangle 136" class="cls-2" width="2.22" height="2.22" transform="translate(0 2.22) rotate(-89.734)"/>
      </g>
      <g id="Group_6344" data-name="Group 6344" transform="translate(63.381 24.414)">
        <rect id="Rectangle_137" data-name="Rectangle 137" class="cls-2" width="2.22" height="2.22" transform="translate(0 2.22) rotate(-89.734)"/>
      </g>
    </g>
  </g>
</svg>
